<svg xmlns="http://www.w3.org/2000/svg" width="100.072" height="60.634" viewBox="0 0 100.072 60.634">
  <g id="和風の松のイラスト" transform="translate(0 -100.889)">
    <path id="パス_9" data-name="パス 9" d="M111.739,366.011a40.511,40.511,0,0,1-13.468,1.846,39.035,39.035,0,0,1-10.22-1.8c1.734-1.667,2.261-2.856,1.939-3.174-.433-.445-1.862.52-4.673,2.084l-.158.083-.174-.065c-2.86-1.125-4.341-1.812-4.708-1.316-.275.357.353,1.391,2.118,2.724a25.542,25.542,0,0,1-21.1,0c1.765-1.334,2.392-2.367,2.119-2.721-.37-.5-1.851.187-4.71,1.312l-.175.065-.156-.081c-2.811-1.564-4.24-2.529-4.673-2.084-.322.319.2,1.507,1.937,3.173a39,39,0,0,1-10.22,1.8,40.511,40.511,0,0,1-13.467-1.846c-2.938-.9-4.466-1.474-4.8-.948-.3.46.807,1.838,3.792,3.407A29.732,29.732,0,0,0,45.556,371.4a30.8,30.8,0,0,0,12.792-3.187,23.115,23.115,0,0,0,4.321,2.267,25.127,25.127,0,0,0,18.354,0,23.092,23.092,0,0,0,4.319-2.267A30.75,30.75,0,0,0,98.134,371.4a29.762,29.762,0,0,0,14.61-2.932c2.985-1.569,4.093-2.947,3.789-3.411C116.206,364.539,114.677,365.111,111.739,366.011Z" transform="translate(-21.809 -210.697)" fill="#4b8141"/>
    <path id="パス_10" data-name="パス 10" d="M85.735,123.114c-.043,0-.084.005-.126.006a14.327,14.327,0,0,0-19.87-11.369,16.781,16.781,0,0,0-31.406,0,14.326,14.326,0,0,0-19.87,11.369c-.042,0-.083-.006-.126-.006a14.337,14.337,0,1,0,0,28.675c4.891,0,17.127-3.439,35.7-3.439s30.807,3.439,35.7,3.439a14.337,14.337,0,0,0,0-28.675Zm6.6,17.192-7.939.08-3.361,3.3a39.63,39.63,0,0,0,4.705.556.832.832,0,1,1,0,1.664,58.815,58.815,0,0,1-6.824-.868,175.171,175.171,0,0,0-28.875-2.571,175.159,175.159,0,0,0-28.877,2.571,58.732,58.732,0,0,1-6.822.868.832.832,0,1,1,0-1.664,42.128,42.128,0,0,0,4.929-.59l-3.228-3.171-8.048-.177a.832.832,0,1,1,.036-1.664l6.279.138L8.821,133.39A.832.832,0,0,1,9.987,132.2l5.837,5.736,1.093-6.685a.832.832,0,0,1,1.643.268l-1.283,7.845,4.037,3.966c4.1-.647,9.467-1.474,16-2L33.936,135.4,26.3,133.815a.832.832,0,0,1,.338-1.63l6.2,1.286L29.8,128.146l-8.216-1.957a.832.832,0,1,1,.385-1.619l6.7,1.6-4.184-7.345A.832.832,0,0,1,25.938,118l4.27,7.5,2.231-6.838a.832.832,0,1,1,1.581.517l-2.654,8.134a.88.88,0,0,1,0,.221l2.944,5.168,2.184-6.085a.832.832,0,1,1,1.567.562L35.4,134.6l3.758,6.6c3.116-.218,6.459-.361,10.049-.38v-5.757l-4.929-3.634a.832.832,0,1,1,.988-1.339l3.941,2.906v-6.115a.759.759,0,0,1-.1-.052L41.9,120.862a.832.832,0,1,1,1.061-1.282l6.243,5.165v-6.08l-8.044-7.674a.832.832,0,0,1,1.149-1.2l6.9,6.579V105.376a.832.832,0,1,1,1.664,0v11.235l7.154-6.826a.832.832,0,0,1,1.149,1.2l-8.3,7.92v6.049l6.5-5.38a.832.832,0,1,1,1.061,1.282l-7.208,5.965a.82.82,0,0,1-.354.163v6.194l4.2-3.094a.832.832,0,1,1,.988,1.339l-5.187,3.824v5.566c3.686.02,7.112.169,10.3.4l3.768-6.612-2.666-7.427a.832.832,0,1,1,1.567-.562l2.184,6.085,2.944-5.168a.848.848,0,0,1,0-.219l-2.654-8.136a.832.832,0,1,1,1.581-.517l2.231,6.838,4.271-7.5a.832.832,0,0,1,1.447.824l-4.184,7.345,6.7-1.6a.832.832,0,1,1,.385,1.619l-8.216,1.957-3.034,5.324,6.2-1.286a.832.832,0,0,1,.338,1.63L66.4,135.4l-3.388,5.945c6.537.541,11.9,1.38,15.974,2.023l4.169-4.1-1.378-7.736a.832.832,0,1,1,1.638-.293l1.178,6.615,5.754-5.654a.832.832,0,1,1,1.167,1.187L86.1,138.7l6.212-.062a.832.832,0,0,1,.016,1.664Z" fill="#4b8141"/>
  </g>
</svg>
