<svg xmlns="http://www.w3.org/2000/svg" width="142" height="128.783" viewBox="0 0 142 128.783">
  <g id="千鳥柄の線画アイコン" transform="translate(0)">
    <path id="パス_4" data-name="パス 4" d="M288.222,406c2.228-.76,4.261-2.871,5.651-5.424a32.024,32.024,0,0,0,6.864-.059c-2.468,10.474-6.553,12.872-9.967,15.008-5.039,3.155-8.523.688-5.039-1.082,5.68-2.889,7.791-8,6.84-6.9s-3.491,1.8-5.722,2.375-3.434,1.077-4.059-.432S283.583,407.568,288.222,406Z" transform="translate(-237.128 -296.044)" fill="#cdcfaa"/>
    <path id="パス_5" data-name="パス 5" d="M403.761,284.561c6.021,2.088,11.166.062,9.711.14s-3.719-1.261-5.678-2.471-3.158-1.729-2.509-3.22,1.93-.76,6.282,1.486c2.093,1.08,7.631.556,10.44-.215,1.447,1.85.458,3.982,2.194,5.422-9.254,5.491-13.817,4.215-17.722,3.24C400.709,287.5,400.068,283.281,403.761,284.561Z" transform="translate(-393.543 -207.671)" fill="#cdcfaa"/>
    <path id="パス_6" data-name="パス 6" d="M.163,60.652C10.425,44.563,32.77,37.165,50.451,34.513c8.693-1.308,17.658-.383,26.242-2.181C83.044,31,89.029,28.2,95.2,26.246c16.115-5.1,31.356-1.687,46.052,6.06.708.377.858.78.679,1.15a1.3,1.3,0,0,1-.7.977c-7.36,4.949-10.4,14.262-12.419,22.472-2.271,9.2-2.995,18.815-3.359,28.265-.382,9.967-.765,19.544-3.031,29.333a115.23,115.23,0,0,1-10.851,28.909c-1.749,3.217-5.026,10.008-9.719,9.12-1.855-.351-2.413-1.827-3.093-3.391-1.3-2.992-2.564-5.99-4.06-8.895-3.969-7.7-10.466-15.68-20.045-14.632a39.713,39.713,0,0,1-23.123-4.375,40.334,40.334,0,0,1-17.474-17.88c-4.178-8.5-1.868-18.084-5.8-26.462C23.909,67.639,11.844,63.052,2.37,62.579,1.644,62.544-.62,61.882.163,60.652ZM29,70.72c6.362,6.693,5.435,14.717,6.724,23.138,1.581,10.293,8.46,18.96,17.195,24.242a35.716,35.716,0,0,0,12.843,4.533c4.432.711,8.771-.566,13.172-.026,7.827.974,13.533,6.153,17.7,12.543a65.521,65.521,0,0,1,4.711,8.889c.569,1.264,1.1,2.543,1.644,3.82.1.23.2.46.3.693,1.612-1.662,2.8-4.158,3.83-5.985a100.82,100.82,0,0,0,6.047-13.319,113.871,113.871,0,0,0,7.235-30.682c.708-7.954.388-15.983,1.065-23.952,1.155-13.551,3.39-31.889,14.817-41.078-7.956-4.01-16.391-6.926-25.4-6.956-6.437-.023-12.639,1.92-18.637,4.068-5.318,1.91-10.582,3.907-16.156,4.954-8,1.507-16.352.708-24.446,1.822C35.936,39.586,15.229,46.953,5.74,59.869,14.332,60.934,23.072,64.482,29,70.72Z" transform="translate(0 -23.828)" fill="#cdcfaa"/>
    <path id="パス_7" data-name="パス 7" d="M103.608,82.389a5.237,5.237,0,1,1-5.238,5.238A5.238,5.238,0,0,1,103.608,82.389Z" transform="translate(5.872 -66.147)" fill="#cdcfaa"/>
    <path id="パス_8" data-name="パス 8" d="M263.2,234.674c-6.515,4.447-20.076,4.039-28.26-2.14s-13.4-26.966-7.928-33.966C227.991,226.446,255.122,235.3,263.2,234.674Z" transform="translate(-183.538 -150.105)" fill="#cdcfaa"/>
  </g>
</svg>
